# Blender 4.0.0
# www.blender.org
mtllib block1.mtl
o street_block
v -47.820213 0.742447 -29.850538
v -47.820213 0.742447 -43.608704
v -47.820213 0.036019 -29.850538
v -47.820213 0.036019 -43.608704
v -44.192818 0.742447 -29.850538
v -40.565418 0.742447 -29.850538
v -36.938019 0.742447 -29.850538
v -33.310623 0.742447 -29.850538
v -29.683224 0.742447 -29.850538
v -26.055826 0.742447 -29.850538
v -22.428429 0.742447 -29.850538
v -44.192818 0.036019 -29.850538
v -40.565418 0.036019 -29.850538
v -36.938019 0.036019 -29.850538
v -33.310623 0.036019 -29.850538
v -29.683224 0.036019 -29.850538
v -26.055826 0.036019 -29.850538
v -22.428429 0.036019 -29.850538
v -22.428431 0.742447 -43.608704
v -26.055828 0.742447 -43.608704
v -29.683228 0.742447 -43.608704
v -33.310623 0.742447 -43.608704
v -36.938023 0.742447 -43.608704
v -40.565418 0.742447 -43.608704
v -44.192818 0.742447 -43.608704
v -22.428431 0.036019 -43.608704
v -26.055828 0.036019 -43.608704
v -29.683228 0.036019 -43.608704
v -33.310623 0.036019 -43.608704
v -36.938023 0.036019 -43.608704
v -40.565418 0.036019 -43.608704
v -44.192818 0.036019 -43.608704
v -51.541672 0.742447 -43.608704
v -55.263130 0.742447 -43.608704
v -58.984589 0.742447 -43.608704
v -62.706043 0.742447 -43.608704
v -66.427505 0.742447 -43.608704
v -70.148956 0.742447 -43.608704
v -73.870415 0.742447 -43.608704
v -51.541672 0.036019 -43.608704
v -55.263130 0.036019 -43.608704
v -58.984589 0.036019 -43.608704
v -62.706043 0.036019 -43.608704
v -66.427505 0.036019 -43.608704
v -70.148956 0.036019 -43.608704
v -73.870415 0.036019 -43.608704
v -73.870415 0.742447 -29.850538
v -70.148956 0.742447 -29.850538
v -66.427498 0.742447 -29.850538
v -62.706043 0.742447 -29.850538
v -58.984585 0.742447 -29.850538
v -55.263126 0.742447 -29.850538
v -51.541672 0.742447 -29.850538
v -73.870415 0.036019 -29.850538
v -70.148956 0.036019 -29.850538
v -66.427498 0.036019 -29.850538
v -62.706043 0.036019 -29.850538
v -58.984585 0.036019 -29.850538
v -55.263126 0.036019 -29.850538
v -51.541672 0.036019 -29.850538
v -47.845806 0.742447 -30.663475
v -47.815800 0.742447 -30.663475
v -47.830631 0.742447 -30.650246
v -47.815800 0.742447 -42.795769
v -47.845806 0.742447 -42.795769
v -47.830631 0.742447 -42.808998
v -47.845806 1.178713 -30.663475
v -47.815800 1.178713 -30.663475
v -47.845806 1.178713 -42.795769
v -47.815800 1.178713 -42.795769
v -44.320511 0.742447 -30.663475
v -44.290504 0.742447 -30.663475
v -44.303684 0.742447 -30.650343
v -40.795212 0.742447 -30.663475
v -40.765205 0.742447 -30.663475
v -40.776806 0.742447 -30.650589
v -37.269917 0.742447 -30.663475
v -37.239910 0.742447 -30.663475
v -37.250038 0.742447 -30.650963
v -33.744621 0.742447 -30.663475
v -33.714615 0.742447 -30.663475
v -33.723412 0.742447 -30.651428
v -30.219324 0.742447 -30.663475
v -30.189316 0.742447 -30.663475
v -30.196939 0.742447 -30.651957
v -26.694027 0.742447 -30.663475
v -26.664019 0.742447 -30.663475
v -26.670622 0.742447 -30.652514
v -23.168732 0.742447 -30.663475
v -23.138723 0.742447 -30.663475
v -23.144449 0.742447 -30.653076
v -44.320511 1.178713 -30.663475
v -44.290504 1.178713 -30.663475
v -40.795212 1.178713 -30.663475
v -40.765205 1.178713 -30.663475
v -37.269917 1.178713 -30.663475
v -37.239910 1.178713 -30.663475
v -33.744621 1.178713 -30.663475
v -33.714615 1.178713 -30.663475
v -30.219324 1.178713 -30.663475
v -30.189316 1.178713 -30.663475
v -26.694027 1.178713 -30.663475
v -26.664019 1.178713 -30.663475
v -23.168732 1.178713 -30.663475
v -23.138723 1.178713 -30.663475
v -23.138723 0.742447 -42.795769
v -23.168732 0.742447 -42.795769
v -23.144449 0.742447 -42.806168
v -26.664019 0.742447 -42.795769
v -26.694027 0.742447 -42.795769
v -26.670622 0.742447 -42.806732
v -30.189316 0.742447 -42.795769
v -30.219324 0.742447 -42.795769
v -30.196939 0.742447 -42.807289
v -33.714615 0.742447 -42.795769
v -33.744621 0.742447 -42.795769
v -33.723412 0.742447 -42.807816
v -37.239910 0.742447 -42.795769
v -37.269917 0.742447 -42.795769
v -37.250038 0.742447 -42.808281
v -40.765205 0.742447 -42.795769
v -40.795212 0.742447 -42.795769
v -40.776806 0.742447 -42.808655
v -44.290501 0.742447 -42.795769
v -44.320511 0.742447 -42.795769
v -44.303684 0.742447 -42.808903
v -23.168732 1.178713 -42.795769
v -23.138723 1.178713 -42.795769
v -26.694027 1.178713 -42.795769
v -26.664019 1.178713 -42.795769
v -30.219324 1.178713 -42.795769
v -30.189316 1.178713 -42.795769
v -33.744621 1.178713 -42.795769
v -33.714615 1.178713 -42.795769
v -37.269917 1.178713 -42.795769
v -37.239910 1.178713 -42.795769
v -40.795212 1.178713 -42.795769
v -40.765205 1.178713 -42.795769
v -44.320511 1.178713 -42.795769
v -44.290501 1.178713 -42.795769
v -51.432507 0.742447 -42.795769
v -51.462517 0.742447 -42.795769
v -51.449036 0.742447 -42.808929
v -55.049217 0.742447 -42.795769
v -55.079224 0.742447 -42.795769
v -55.067383 0.742447 -42.808701
v -58.665924 0.742447 -42.795769
v -58.695934 0.742447 -42.795769
v -58.685623 0.742447 -42.808334
v -62.282635 0.742447 -42.795769
v -62.312645 0.742447 -42.795769
v -62.303719 0.742447 -42.807865
v -65.899345 0.742447 -42.795769
v -65.929352 0.742447 -42.795769
v -65.921646 0.742447 -42.807331
v -69.516052 0.742447 -42.795769
v -69.546066 0.742447 -42.795769
v -69.539413 0.742447 -42.806759
v -73.132767 0.742447 -42.795769
v -73.162773 0.742447 -42.795769
v -73.157021 0.742447 -42.806183
v -51.432507 1.178713 -42.795769
v -51.462517 1.178713 -42.795769
v -55.049217 1.178713 -42.795769
v -55.079224 1.178713 -42.795769
v -58.665924 1.178713 -42.795769
v -58.695934 1.178713 -42.795769
v -62.282635 1.178713 -42.795769
v -62.312645 1.178713 -42.795769
v -65.899345 1.178713 -42.795769
v -65.929352 1.178713 -42.795769
v -69.516052 1.178713 -42.795769
v -69.546066 1.178713 -42.795769
v -73.132767 1.178713 -42.795769
v -73.162773 1.178713 -42.795769
v -73.162773 0.742447 -30.663475
v -73.132767 0.742447 -30.663475
v -73.157021 0.742447 -30.653061
v -69.546059 0.742447 -30.663475
v -69.516052 0.742447 -30.663475
v -69.539413 0.742447 -30.652485
v -65.929352 0.742447 -30.663475
v -65.899345 0.742447 -30.663475
v -65.921646 0.742447 -30.651915
v -62.312641 0.742447 -30.663475
v -62.282635 0.742447 -30.663475
v -62.303715 0.742447 -30.651379
v -58.695934 0.742447 -30.663475
v -58.665924 0.742447 -30.663475
v -58.685623 0.742447 -30.650908
v -55.079224 0.742447 -30.663475
v -55.049217 0.742447 -30.663475
v -55.067383 0.742447 -30.650543
v -51.462517 0.742447 -30.663475
v -51.432507 0.742447 -30.663475
v -51.449036 0.742447 -30.650312
v -73.132767 1.178713 -30.663475
v -73.162773 1.178713 -30.663475
v -69.516052 1.178713 -30.663475
v -69.546059 1.178713 -30.663475
v -65.899345 1.178713 -30.663475
v -65.929352 1.178713 -30.663475
v -62.282635 1.178713 -30.663475
v -62.312641 1.178713 -30.663475
v -58.665924 1.178713 -30.663475
v -58.695934 1.178713 -30.663475
v -55.049217 1.178713 -30.663475
v -55.079224 1.178713 -30.663475
v -51.432507 1.178713 -30.663475
v -51.462517 1.178713 -30.663475
v -77.246277 0.742447 -29.850538
v -77.591873 0.742447 -30.155270
v -77.361046 0.742447 -30.077332
v -77.490646 0.742447 -29.939793
v -18.801033 0.742447 -30.155270
v -19.146631 0.742447 -29.850538
v -19.031860 0.742447 -30.077332
v -18.902258 0.742447 -29.939793
v -77.591873 0.742447 -43.303974
v -77.246277 0.742447 -43.608704
v -77.361046 0.742447 -43.381912
v -77.490646 0.742447 -43.519451
v -19.146631 0.742447 -43.608704
v -18.801033 0.742447 -43.303974
v -19.031860 0.742447 -43.381912
v -18.902258 0.742447 -43.519451
v -77.246277 0.036019 -43.608704
v -77.591873 0.036019 -43.303974
v -77.490646 0.036019 -43.519451
v -77.591873 0.036019 -30.155270
v -77.246277 0.036019 -29.850538
v -77.490646 0.036019 -29.939793
v -19.146631 0.036019 -29.850538
v -18.801033 0.036019 -30.155270
v -18.902258 0.036019 -29.939793
v -18.801033 0.036019 -43.303974
v -19.146631 0.036019 -43.608704
v -18.902258 0.036019 -43.519451
v -76.764473 0.742447 -30.968204
v -76.418877 0.742447 -30.663475
v -76.995300 0.742447 -30.436680
v -76.663254 0.742447 -30.752728
v -76.418877 0.742447 -42.795769
v -76.764473 0.742447 -42.491039
v -76.995300 0.742447 -43.022564
v -76.663254 0.742447 -42.706516
v -19.628431 0.742447 -42.491039
v -19.974030 0.742447 -42.795769
v -19.397604 0.742447 -43.022564
v -19.729656 0.742447 -42.706516
v -19.974030 0.742447 -30.663475
v -19.628431 0.742447 -30.968204
v -19.397604 0.742447 -30.436680
v -19.729656 0.742447 -30.752728
v -76.764473 1.178713 -42.491039
v -76.418877 1.178713 -42.795769
v -76.663254 1.178713 -42.706516
v -76.418877 1.178713 -30.663475
v -76.764473 1.178713 -30.968204
v -76.663254 1.178713 -30.752728
v -19.628431 1.178713 -30.968204
v -19.974030 1.178713 -30.663475
v -19.729656 1.178713 -30.752728
v -19.974030 1.178713 -42.795769
v -19.628431 1.178713 -42.491039
v -19.729656 1.178713 -42.706516
vn -0.0000 1.0000 -0.0000
vn -0.0000 -0.0000 -1.0000
vn -0.0000 -0.0000 1.0000
vn -1.0000 -0.0000 -0.0000
vn 1.0000 -0.0000 -0.0000
vn -0.9051 -0.0000 -0.4252
vn -0.3431 -0.0000 -0.9393
vn 0.9051 -0.0000 -0.4252
vn 0.3431 -0.0000 -0.9393
vn 0.9051 -0.0000 0.4252
vn 0.3431 -0.0000 0.9393
vn -0.9051 -0.0000 0.4252
vn -0.3431 -0.0000 0.9393
vn -0.0000 -1.0000 -0.0000
vt 0.876600 1.000000
vt 0.866143 0.986116
vt 0.866255 0.985926
vt 0.925708 0.985927
vt 0.926121 0.986107
vt 0.938300 1.000000
vt 0.994122 1.000000
vt 0.996074 0.996074
vt 0.989853 0.989853
vt 0.985926 0.961516
vt 0.985926 0.038484
vt 0.989853 0.010147
vt 0.996074 0.003926
vt 1.000000 0.022149
vt 1.000000 0.977851
vt 0.938300 0.000000
vt 0.938300 0.000000
vt 0.994122 0.000000
vt 0.063300 0.000000
vt 0.075434 0.013893
vt 0.075337 0.014074
vt 0.019952 0.014074
vt 0.010147 0.010147
vt 0.003926 0.003926
vt 0.005878 0.000000
vt 0.000000 0.977851
vt 0.000000 0.022149
vt 0.000000 0.022149
vt 0.866255 0.985926
vt 0.925708 0.985926
vt 0.003926 0.996074
vt 0.010147 0.989853
vt 0.019952 0.985926
vt 0.075337 0.985926
vt 0.075434 0.986107
vt 0.063300 1.000000
vt 0.005878 1.000000
vt 0.189900 0.000000
vt 0.198504 0.013874
vt 0.198373 0.014074
vt 0.137365 0.014074
vt 0.136968 0.013883
vt 0.126600 0.000000
vt 0.014074 0.038484
vt 0.014074 0.038484
vt 0.014074 0.961516
vt 0.014074 0.961516
vt 0.075337 0.014074
vt 0.019952 0.014074
vt 0.926218 0.985927
vt 0.926218 0.985926
vt 0.980048 0.985926
vt 0.980048 0.985926
vt 0.136855 0.014074
vt 0.075847 0.014074
vt 0.506475 0.985926
vt 0.506475 0.985926
vt 0.565928 0.985926
vt 0.565928 0.985926
vt 0.506475 0.014074
vt 0.565928 0.014074
vt 0.505964 0.014074
vt 0.505964 0.014074
vt 0.444957 0.014074
vt 0.444957 0.014074
vt 0.444957 0.014074
vt 0.505964 0.014074
vt 0.505964 0.985926
vt 0.444957 0.985926
vt 0.443100 0.000000
vt 0.443100 0.000000
vt 0.506400 0.000000
vt 0.568100 1.000000
vt 0.568100 1.000000
vt 0.506400 1.000000
vt 0.443100 1.000000
vt 0.444675 0.986154
vt 0.444957 0.985926
vt 0.505964 0.985926
vt 0.506222 0.986155
vt 0.814900 1.000000
vt 0.814900 1.000000
vt 0.753200 1.000000
vt 0.753200 1.000000
vt 0.691500 1.000000
vt 0.629800 1.000000
vt 0.566438 0.014074
vt 0.625891 0.014074
vt 0.625891 0.985926
vt 0.566438 0.985926
vt 0.075337 0.985926
vt 0.019952 0.985926
vt 0.014648 0.983543
vt 0.014648 0.016457
vt 0.925708 0.014074
vt 0.866255 0.014074
vt 0.866255 0.014074
vt 0.865744 0.014074
vt 0.865744 0.014074
vt 0.806292 0.014074
vt 0.805781 0.014074
vt 0.805781 0.014074
vt 0.746328 0.014074
vt 0.746328 0.014074
vt 0.745818 0.014074
vt 0.745818 0.014074
vt 0.686365 0.014074
vt 0.686365 0.014074
vt 0.685854 0.014074
vt 0.685854 0.014074
vt 0.626401 0.014074
vt 0.626401 0.014074
vt 1.000000 0.022149
vt 0.926121 0.013894
vt 0.925708 0.014074
vt 0.866255 0.014074
vt 0.866143 0.013884
vt 0.876600 0.000000
vt 0.866143 0.013884
vt 0.865744 0.014074
vt 0.806292 0.014074
vt 0.806162 0.013874
vt 0.814900 0.000000
vt 0.806162 0.013874
vt 0.805781 0.014074
vt 0.746328 0.014074
vt 0.746179 0.013865
vt 0.753200 0.000000
vt 0.746179 0.013865
vt 0.745818 0.014074
vt 0.686365 0.014074
vt 0.686192 0.013857
vt 0.691500 0.000000
vt 0.686193 0.013857
vt 0.685854 0.014074
vt 0.626401 0.014074
vt 0.626204 0.013851
vt 0.629800 0.000000
vt 0.626204 0.013851
vt 0.625891 0.014074
vt 0.566438 0.014074
vt 0.566214 0.013846
vt 0.568100 0.000000
vt 0.625891 0.014074
vt 0.625891 0.014074
vt 0.566438 0.014074
vt 0.566438 0.014074
vt 0.626401 0.014074
vt 0.685854 0.014074
vt 0.685854 0.985926
vt 0.626401 0.985926
vt 0.686365 0.014074
vt 0.745818 0.014074
vt 0.745818 0.985926
vt 0.686365 0.985926
vt 0.746328 0.014074
vt 0.805781 0.985926
vt 0.746328 0.985926
vt 0.806292 0.014074
vt 0.865744 0.014074
vt 0.865744 0.985926
vt 0.806291 0.985926
vt 0.866255 0.014074
vt 0.925708 0.014074
vt 0.444957 0.985926
vt 0.444957 0.985926
vt 0.379800 1.000000
vt 0.383129 0.986150
vt 0.383438 0.985926
vt 0.444446 0.985926
vt 0.566438 0.985926
vt 0.566438 0.985926
vt 0.625891 0.985926
vt 0.626401 0.985926
vt 0.685854 0.985926
vt 0.686365 0.985926
vt 0.865744 0.985926
vt 0.629800 0.000000
vt 0.691500 0.000000
vt 0.566214 0.986154
vt 0.566438 0.985926
vt 0.626204 0.986149
vt 0.686193 0.986143
vt 0.746178 0.986135
vt 0.806162 0.986126
vt 0.866143 0.986116
vt 0.980048 0.014074
vt 0.926218 0.014074
vt 0.926218 0.014074
vt 0.383438 0.014074
vt 0.444446 0.014074
vt 0.444446 0.985926
vt 0.005878 1.000000
vt 0.075847 0.985926
vt 0.136855 0.985926
vt 0.136968 0.986117
vt 0.126600 1.000000
vt 0.137365 0.985926
vt 0.198373 0.985926
vt 0.198504 0.986127
vt 0.189900 1.000000
vt 0.198884 0.985926
vt 0.259891 0.985926
vt 0.260043 0.986136
vt 0.253200 1.000000
vt 0.260402 0.985926
vt 0.321410 0.985926
vt 0.321585 0.986144
vt 0.316500 1.000000
vt 0.321585 0.986144
vt 0.321920 0.985926
vt 0.382928 0.985926
vt 0.926218 0.014074
vt 0.926121 0.013894
vt 0.253200 0.000000
vt 0.316500 0.000000
vt 0.379800 0.000000
vt 0.379800 0.000000
vt 0.985926 0.961516
vt 0.985926 0.038484
vt 0.075847 0.985926
vt 0.136855 0.985926
vt 0.137365 0.985926
vt 0.198373 0.985926
vt 0.198884 0.985926
vt 0.259891 0.985926
vt 0.259891 0.985926
vt 0.260402 0.985926
vt 0.260402 0.985926
vt 0.321410 0.985926
vt 0.321920 0.985926
vt 0.382928 0.985926
vt 0.383438 0.985926
vt 0.383438 0.985926
vt 0.444446 0.985926
vt 0.444446 0.985926
vt 0.075337 0.985926
vt 0.075337 0.985926
vt 0.985352 0.016457
vt 0.985352 0.983543
vt 0.075847 0.014074
vt 0.136855 0.014074
vt 0.075847 0.985926
vt 0.137365 0.014074
vt 0.198373 0.014074
vt 0.198884 0.014074
vt 0.259891 0.014074
vt 0.259891 0.985926
vt 0.260402 0.014074
vt 0.321410 0.014074
vt 0.260402 0.985926
vt 0.321920 0.014074
vt 0.382928 0.014074
vt 0.382928 0.985926
vt 0.565928 0.014074
vt 0.506475 0.014074
vt 0.506475 0.014074
vt 0.444675 0.013846
vt 0.444446 0.014074
vt 0.383129 0.013850
vt 0.382928 0.014074
vt 0.321920 0.014074
vt 0.321585 0.013856
vt 0.321410 0.014074
vt 0.260402 0.014074
vt 0.260043 0.013864
vt 0.260043 0.013864
vt 0.259891 0.014074
vt 0.198884 0.014074
vt 0.198504 0.013874
vt 0.005878 0.000000
vt 0.506475 0.014074
vt 0.506222 0.013845
vt 0.444446 0.014074
vt 0.383438 0.014074
vt 0.383438 0.014074
vt 0.382928 0.014074
vt 0.379800 1.000000
vt 0.316500 1.000000
vt 0.189900 1.000000
vt 0.126600 1.000000
vt 0.506222 0.013845
vt 0.505964 0.014074
vt 0.444675 0.013846
vt 0.001722 0.000000
vt 0.000000 0.000000
vt 1.000000 0.006487
vt 1.000000 0.000000
vt 0.000000 0.993513
vt 0.000000 1.000000
vt 0.998278 1.000000
vt 1.000000 1.000000
vt 0.014074 0.021223
vt 0.014074 0.014074
vt 0.015795 0.985926
vt 0.014074 0.985926
vt 0.985926 0.978777
vt 0.985926 0.985926
vt 0.984205 0.014074
vt 0.985926 0.014074
s 0
usemtl street_blocks_
f 20/1/1 111/2/1 109/3/1 107/4/1 108/5/1 19/6/1
f 223/7/2 237/7/2 26/6/2 19/6/2
f 225/8/1 249/9/1 247/10/1 252/11/1 253/12/1 217/13/1 215/14/1 224/15/1
f 11/16/3 18/17/3 233/18/3 216/18/3
f 47/19/1 178/20/1 176/21/1 240/22/1 241/23/1 213/24/1 211/25/1
f 219/26/4 228/26/4 230/27/4 212/28/4
f 221/31/1 245/32/1 243/33/1 160/34/1 161/35/1 39/36/1 220/37/1
f 49/38/1 184/39/1 182/40/1 180/41/1 181/42/1 48/43/1
f 48/43/1 181/42/1 179/54/1 177/55/1 178/20/1 47/19/1
f 53/70/3 60/71/3 3/72/3 1/72/3
f 25/73/2 32/74/2 4/75/2 2/75/2
f 33/76/1 143/77/1 141/78/1 65/79/1 66/80/1 2/75/1
f 19/6/1 108/5/1 106/50/1 248/53/1 249/9/1 225/8/1 223/7/1
f 19/6/2 26/6/2 27/1/2 20/1/2
f 20/1/2 27/1/2 28/81/2 21/82/2
f 21/82/2 28/81/2 29/83/2 22/84/2
f 22/84/2 29/83/2 30/85/2 23/85/2
f 23/85/2 30/85/2 31/86/2 24/86/2
f 24/86/2 31/86/2 32/74/2 25/73/2
f 215/113/5 234/14/5 236/15/5 224/15/5
f 11/16/1 91/114/1 89/115/1 87/116/1 88/117/1 10/118/1
f 10/118/1 88/119/1 86/120/1 84/121/1 85/122/1 9/123/1
f 9/123/1 85/124/1 83/125/1 81/126/1 82/127/1 8/128/1
f 8/128/1 82/129/1 80/130/1 78/131/1 79/132/1 7/133/1
f 7/133/1 79/134/1 77/135/1 75/136/1 76/137/1 6/138/1
f 6/138/1 76/139/1 74/140/1 72/141/1 73/142/1 5/143/1
f 34/167/1 146/168/1 144/169/1 142/170/1 143/77/1 33/76/1
f 1/72/3 3/72/3 12/143/3 5/143/3
f 5/143/3 12/143/3 13/178/3 6/138/3
f 6/138/3 13/178/3 14/179/3 7/133/3
f 7/133/3 14/179/3 15/128/3 8/128/3
f 8/128/3 15/128/3 16/123/3 9/123/3
f 9/123/3 16/123/3 17/118/3 10/118/3
f 10/118/3 17/118/3 18/17/3 11/16/3
f 2/75/1 66/80/1 64/57/1 125/59/1 126/180/1 25/73/1
f 25/73/1 126/180/1 124/181/1 122/173/1 123/182/1 24/86/1
f 24/86/1 123/182/1 121/174/1 119/175/1 120/183/1 23/85/1
f 23/85/1 120/183/1 118/176/1 116/154/1 117/184/1 22/84/1
f 22/84/1 117/184/1 115/158/1 113/157/1 114/185/1 21/82/1
f 21/82/1 114/185/1 112/162/1 110/177/1 111/186/1 20/1/1
f 39/36/2 46/36/2 227/37/2 220/193/2
f 39/36/1 161/35/1 159/194/1 157/195/1 158/196/1 38/197/1
f 38/197/1 158/196/1 156/198/1 154/199/1 155/200/1 37/201/1
f 37/201/1 155/200/1 153/202/1 151/203/1 152/204/1 36/205/1
f 36/205/1 152/204/1 150/206/1 148/207/1 149/208/1 35/209/1
f 35/209/1 149/210/1 147/211/1 145/212/1 146/168/1 34/167/1
f 217/13/1 253/12/1 251/187/1 90/213/1 91/214/1 11/16/1 216/18/1
f 47/19/3 54/19/3 55/43/3 48/43/3
f 48/43/3 55/43/3 56/38/3 49/38/3
f 49/38/3 56/38/3 57/215/3 50/215/3
f 50/215/3 57/215/3 58/216/3 51/216/3
f 51/216/3 58/216/3 59/217/3 52/218/3
f 52/218/3 59/217/3 60/71/3 53/70/3
f 53/70/1 196/258/1 194/259/1 192/190/1 193/260/1 52/218/1
f 52/218/1 193/260/1 191/261/1 189/262/1 190/263/1 51/216/1
f 51/216/1 190/263/1 188/264/1 186/265/1 187/266/1 50/215/1
f 50/215/1 187/267/1 185/268/1 183/269/1 184/270/1 49/38/1
f 211/271/3 231/25/3 54/19/3 47/19/3
f 5/143/1 73/142/1 71/255/1 62/272/1 63/273/1 1/72/1
f 2/75/2 4/75/2 40/76/2 33/76/2
f 33/76/2 40/76/2 41/278/2 34/167/2
f 34/167/2 41/278/2 42/279/2 35/209/2
f 35/209/2 42/279/2 43/205/2 36/205/2
f 36/205/2 43/205/2 44/280/2 37/201/2
f 37/201/2 44/280/2 45/281/2 38/197/2
f 38/197/2 45/281/2 46/36/2 39/36/2
f 1/72/1 63/282/1 61/283/1 195/66/1 196/284/1 53/70/1
f 211/271/1 213/24/1 214/285/1
f 214/285/1 213/24/1 212/286/1
f 215/113/1 217/13/1 218/287/1
f 218/287/1 217/13/1 216/288/1
f 219/26/1 221/31/1 222/289/1
f 222/289/1 221/31/1 220/290/1
f 223/7/1 225/8/1 226/291/1
f 226/291/1 225/8/1 224/292/1
f 239/44/1 241/23/1 242/293/1
f 242/293/1 241/23/1 240/294/1
f 243/92/1 245/32/1 246/295/1
f 246/295/1 245/32/1 244/296/1
f 247/219/1 249/9/1 250/297/1
f 250/297/1 249/9/1 248/298/1
f 251/187/1 253/12/1 254/299/1
f 254/299/1 253/12/1 252/300/1
f 219/26/6 222/290/6 229/290/6 228/26/6
f 222/290/7 220/193/7 227/37/7 229/290/7
f 236/15/8 238/292/8 226/292/8 224/15/8
f 238/292/9 237/7/9 223/7/9 226/292/9
f 215/113/10 218/288/10 235/288/10 234/14/10
f 218/288/11 216/18/11 233/18/11 235/288/11
f 230/27/12 232/286/12 214/286/12 212/28/12
f 232/286/13 231/25/13 211/271/13 214/286/13
f 213/24/1 241/23/1 239/45/1 244/46/1 245/32/1 221/31/1 219/26/1 212/27/1
usemtl blocks
f 109/3/2 130/29/2 127/30/2 107/4/2
f 239/44/4 259/45/4 255/46/4 244/47/4
f 176/21/3 198/48/3 258/22/3 240/49/3
f 106/50/2 128/51/2 264/52/2 248/53/2
f 64/56/2 70/57/2 139/58/2 125/59/2
f 68/60/1 92/61/1 139/58/1 70/56/1
f 61/62/3 67/63/3 209/64/3 195/65/3
f 209/66/1 67/67/1 69/68/1 162/69/1
f 93/87/1 94/88/1 137/89/1 140/90/1
f 258/49/1 198/48/1 175/91/1 256/92/1 257/93/1 255/47/1 259/44/1 260/94/1
f 89/95/3 104/95/3 103/96/3 87/97/3
f 86/98/3 102/99/3 101/100/3 84/100/3
f 83/101/3 100/102/3 99/103/3 81/104/3
f 80/105/3 98/106/3 97/107/3 78/108/3
f 77/109/3 96/110/3 95/111/3 75/112/3
f 74/144/3 94/145/3 93/146/3 72/147/3
f 95/148/1 96/149/1 135/150/1 138/151/1
f 97/152/1 98/153/1 133/154/1 136/155/1
f 99/156/1 100/125/1 131/157/1 134/158/1
f 101/159/1 102/160/1 129/161/1 132/162/1
f 103/163/1 104/164/1 127/30/1 130/29/1
f 141/165/2 162/166/2 69/79/2 65/68/2
f 124/171/2 140/172/2 137/89/2 122/173/2
f 121/174/2 138/151/2 135/150/2 119/175/2
f 118/176/2 136/155/2 133/154/2 116/154/2
f 115/158/2 134/158/2 131/157/2 113/157/2
f 112/162/2 132/162/2 129/161/2 110/177/2
f 251/187/3 262/187/3 105/188/3 90/189/3
f 207/190/1 210/191/1 163/192/1 164/169/1
f 247/219/5 265/10/5 261/11/5 252/220/5
f 159/221/2 174/221/2 173/195/2 157/222/2
f 156/223/2 172/198/2 171/199/2 154/224/2
f 153/225/2 170/202/2 169/226/2 151/227/2
f 150/228/2 168/229/2 167/207/2 148/230/2
f 147/231/2 166/211/2 165/232/2 145/232/2
f 144/233/2 164/234/2 163/235/2 142/236/2
f 243/92/2 256/92/2 175/237/2 160/238/2
f 105/213/1 262/187/1 263/239/1 261/220/1 265/219/1 266/240/1 264/52/1 128/51/1
f 197/241/1 200/242/1 173/222/1 174/243/1
f 199/244/1 202/245/1 171/224/1 172/223/1
f 201/246/1 204/247/1 169/248/1 170/225/1
f 203/249/1 206/250/1 167/230/1 168/251/1
f 205/252/1 208/253/1 165/254/1 166/231/1
f 71/255/3 92/61/3 68/256/3 62/257/3
f 194/274/3 210/274/3 207/275/3 192/276/3
f 191/277/3 208/277/3 205/252/3 189/262/3
f 188/264/3 206/250/3 203/265/3 186/249/3
f 185/247/3 204/268/3 201/246/3 183/269/3
f 182/40/3 202/245/3 199/244/3 180/41/3
f 179/54/3 200/242/3 197/241/3 177/55/3
f 247/219/8 250/298/8 266/240/8 265/10/8
f 250/298/9 248/53/9 264/52/9 266/240/9
f 255/46/6 257/93/6 246/296/6 244/47/6
f 257/93/7 256/92/7 243/92/7 246/296/7
f 258/22/13 260/94/13 242/294/13 240/49/13
f 260/94/12 259/45/12 239/44/12 242/294/12
f 251/187/11 254/300/11 263/239/11 262/187/11
f 254/300/10 252/220/10 261/11/10 263/239/10
usemtl blocks_base
f 60/71/14 59/217/14 58/216/14 57/215/14 56/38/14 55/43/14 54/19/14 231/25/14 232/286/14 230/27/14 228/26/14 229/290/14 227/37/14 46/36/14 45/281/14 44/280/14 43/205/14 42/279/14 41/278/14 40/76/14 4/75/14 32/74/14 31/86/14 30/85/14 29/83/14 28/81/14 27/1/14 26/6/14 237/7/14 238/292/14 236/15/14 234/14/14 235/288/14 233/18/14 18/17/14 17/118/14 16/123/14 15/128/14 14/179/14 13/178/14 12/143/14 3/72/14
